<svg xmlns="http://www.w3.org/2000/svg" viewBox="-24 250 1374 692" role="img" aria-label="कर (Kara)">
  <!-- 'कर' (kara — Hindi for tax). Outlines from Noto Sans Devanagari Bold,
       Copyright 2018 The Noto Project Authors, SIL Open Font License 1.1. -->
  <defs>
    <linearGradient id="kara-saffron" x1="0" y1="0" x2="1" y2="1">
      <stop offset="0" stop-color="#f59e0b"/>
      <stop offset="1" stop-color="#ea580c"/>
    </linearGradient>
  </defs>
  <g fill="url(#kara-saffron)">
    <path d="M844.6085205078125 385.8690185546875H518.99853515625V566.0499267578125L504.99853515625 536.5303955078125Q528.658447265625 517.6302490234375 558.3885498046875 506.81512451171875Q588.11865234375 496.0 626.8487548828125 496.0Q705.1685791015625 496.0 750.9634399414062 541.7449340820312Q796.75830078125 587.4898681640625 796.75830078125 667.5897216796875Q796.75830078125 715.9298095703125 778.8932495117188 764.7348022460938Q761.0281982421875 813.539794921875 718.858154296875 867.419677734375L598.2293701171875 799.6302490234375Q625.1295166015625 768.0701904296875 641.359619140625 736.6700439453125Q657.5897216796875 705.2698974609375 657.5897216796875 670.2496337890625Q657.5897216796875 638.4493408203125 642.6895751953125 622.6591796875Q627.7894287109375 606.8690185546875 600.7691650390625 606.8690185546875Q573.8690185546875 606.8690185546875 550.4688720703125 623.1841430664062Q527.0687255859375 639.499267578125 514.778564453125 663.6895751953125L518.99853515625 637.059326171875V896.0H379.43994140625V707.3494873046875L417.83935546875 740.4493408203125Q395.179443359375 760.6693115234375 368.01953125 775.3643188476562Q340.859619140625 790.059326171875 309.419677734375 797.7543334960938Q277.979736328125 805.4493408203125 242.759765625 805.4493408203125Q181.3900146484375 805.4493408203125 134.6201171875 784.4243774414062Q87.8502197265625 763.3994140625 61.43524169921875 722.7644653320312Q35.020263671875 682.1295166015625 35.020263671875 623.9095458984375Q35.020263671875 538.859619140625 91.65521240234375 492.7496337890625Q148.2901611328125 446.6396484375 250.780029296875 446.6396484375Q276.780029296875 446.6396484375 301.719970703125 448.83465576171875Q326.659912109375 451.0296630859375 349.31982421875 456.0296630859375L337.43994140625 566.8487548828125Q322.2698974609375 563.0687255859375 304.81982421875 561.1787109375Q287.3697509765625 559.2886962890625 268.0296630859375 559.2886962890625Q223.499267578125 559.2886962890625 199.0390625 576.9439086914062Q174.578857421875 594.59912109375 174.578857421875 627.51953125Q174.578857421875 660.0499267578125 196.5390625 676.3151245117188Q218.499267578125 692.580322265625 253.739501953125 692.580322265625Q300.51953125 692.580322265625 337.99456787109375 665.9453735351562Q375.4696044921875 639.3104248046875 393.8096923828125 607.140380859375L379.43994140625 692.739501953125V385.8690185546875H0.0V274H844.6085205078125Z"/>
    <path d="M1213.778564453125 385.8690185546875 1230.5289306640625 356.83935546875Q1240.9189453125 380.0093994140625 1247.5538940429688 406.42437744140625Q1254.1888427734375 432.83935546875 1254.1888427734375 469.71923828125Q1254.1888427734375 521.059326171875 1232.6038208007812 560.2543334960938Q1211.018798828125 599.4493408203125 1171.1287841796875 627.6443481445312Q1131.23876953125 655.83935546875 1077.23876953125 674.7894287109375L1074.9688720703125 648.31982421875Q1105.4088134765625 678.8798828125 1138.1638793945312 708.9750366210938Q1170.9189453125 739.0701904296875 1206.759033203125 768.6653442382812Q1242.59912109375 798.260498046875 1281.1591796875 828.9906005859375L1184.7301025390625 918.3697509765625Q1103.900146484375 849.19970703125 1044.3502197265625 789.5046997070312Q984.80029296875 729.8096923828125 947.6302490234375 678.4696044921875Q924.460205078125 645.9095458984375 913.6552124023438 619.9095458984375Q902.8502197265625 593.9095458984375 902.8502197265625 569.4696044921875Q902.8502197265625 537.31982421875 923.2550659179688 518.43994140625Q943.659912109375 499.56005859375 977.19970703125 499.56005859375Q1012.739501953125 499.56005859375 1042.619384765625 520.0850219726562Q1072.499267578125 540.6099853515625 1104.819091796875 577.8798828125L1032.2496337890625 560.3900146484375Q1075.8299560546875 541.3900146484375 1095.4251098632812 515.2098388671875Q1115.020263671875 489.0296630859375 1115.020263671875 449.95947265625Q1115.020263671875 421.5694580078125 1107.8252563476562 396.42437744140625Q1100.6302490234375 371.279296875 1087.80029296875 354.7894287109375L1138.900146484375 385.8690185546875H870.0V274H1326.3292236328125V385.8690185546875Z"/>
  </g>
</svg>
